<?xml version="1.0" encoding="UTF-8"?>
<!DOCTYPE svg PUBLIC "-//W3C//DTD SVG 1.1//EN" "http://www.w3.org/Graphics/SVG/1.1/DTD/svg11.dtd">
<svg xmlns="http://www.w3.org/2000/svg" version="1.1" width="192px" height="192px" style="shape-rendering:geometricPrecision; text-rendering:geometricPrecision; image-rendering:optimizeQuality; fill-rule:evenodd; clip-rule:evenodd" xmlns:xlink="http://www.w3.org/1999/xlink">
<g><path style="opacity:0.926" fill="#ee1c23" d="M 36.5,8.5 C 75.5014,8.33335 114.501,8.50001 153.5,9C 165.094,10.9303 173.594,17.097 179,27.5C 180.393,32.0947 180.726,36.7613 180,41.5C 165.488,68.0055 150.155,94.0055 134,119.5C 117.725,92.6095 101.725,65.6095 86,38.5C 77.1103,55.2772 67.4436,71.6105 57,87.5C 49.319,79.6521 41.4857,71.9854 33.5,64.5C 25.6824,71.9302 18.0157,79.5968 10.5,87.5C 9.5,87 8.5,86.5 7.5,86C 8.32625,68.2403 8.82625,50.4069 9,32.5C 14.0428,19.6149 23.2095,11.6149 36.5,8.5 Z"/></g>
<g><path style="opacity:0.93" fill="#23201f" d="M 84.5,59.5 C 86.0174,59.5106 87.1841,60.1772 88,61.5C 103.627,88.4483 119.294,115.448 135,142.5C 149.335,117.484 163.669,92.4844 178,67.5C 179.079,65.6063 180.413,65.273 182,66.5C 182.667,94.5 182.667,122.5 182,150.5C 180.213,166.446 171.713,176.779 156.5,181.5C 115.504,182.667 74.5041,182.833 33.5,182C 18.002,177.173 9.50199,166.673 8,150.5C 7.18217,134.456 7.34883,118.456 8.5,102.5C 16.1931,94.6397 24.0265,86.973 32,79.5C 40.2282,87.8928 48.7282,96.2261 57.5,104.5C 66.9748,89.713 75.9748,74.713 84.5,59.5 Z"/></g>
</svg>
